<?xml version="1.0" standalone="yes"?>
<svg xmlns="http://www.w3.org/2000/svg" width="512" height="512">
<path style="fill:#ffffff; stroke:none;" d="M0 0L0 512L512 512L512 0L0 0z"/>
<path style="fill:#4a4a4a; stroke:none;" d="M328 304L329 305L328 304z"/>
<path style="fill:#8196aa; stroke:none;" d="M312 307L313 308L312 307z"/>
<path style="fill:#7897b5; stroke:none;" d="M321 307L322 308L321 307z"/>
<path style="fill:#b6b6b6; stroke:none;" d="M335 308L336 309L335 308z"/>
<path style="fill:#8ca0b3; stroke:none;" d="M329 311L330 312L329 311z"/>
<path style="fill:#7694b1; stroke:none;" d="M331 312L332 313L331 312z"/>
<path style="fill:#588ec3; stroke:none;" d="M333 313L334 314L333 313z"/>
<path style="fill:#6c91b6; stroke:none;" d="M336 315L337 316L336 315z"/>
<path style="fill:#b6b6b6; stroke:none;" d="M347 316L348 317L347 316z"/>
<path style="fill:#7393b1; stroke:none;" d="M339 317L340 318L339 317z"/>
<path style="fill:#686868; stroke:none;" d="M274 318L275 319L274 318z"/>
<path style="fill:#525252; stroke:none;" d="M266 319L267 320L266 319z"/>
<path style="fill:#818181; stroke:none;" d="M277 319L278 320L277 319z"/>
<path style="fill:#7393b1; stroke:none;" d="M342 319L343 320L342 319z"/>
<path style="fill:#b6b6b6; stroke:none;" d="M351 319L352 320L351 319M265 320L266 321L265 320z"/>
<path style="fill:#363636; stroke:none;" d="M279 320L280 321L279 320z"/>
<path style="fill:#b6b6b6; stroke:none;" d="M306 320L307 321L306 320M264 321L265 322L264 321z"/>
<path style="fill:#6891b9; stroke:none;" d="M345 321L346 322L345 321z"/>
<path style="fill:#b6b6b6; stroke:none;" d="M263 322L264 323L263 322z"/>
<path style="fill:#8a9aaa; stroke:none;" d="M346 322L347 323L346 322z"/>
<path style="fill:#686868; stroke:none;" d="M355 322L356 323L355 322z"/>
<path style="fill:#b6b6b6; stroke:none;" d="M283 323C283.545 324.635 283.365 324.455 285 325C284.455 323.365 284.635 323.545 283 323z"/>
<path style="fill:#518dc7; stroke:none;" d="M268 324L269 325L268 324z"/>
<path style="fill:#578ec3; stroke:none;" d="M275 324L276 325L275 324z"/>
<path style="fill:#5e8fbf; stroke:none;" d="M349 324L350 325L349 324z"/>
<path style="fill:#7b94ac; stroke:none;" d="M350 325L351 326L350 325z"/>
<path style="fill:#7b95ae; stroke:none;" d="M278 326L279 327L278 326z"/>
<path style="fill:#7296b9; stroke:none;" d="M313 326L314 327L313 326z"/>
<path style="fill:#538ec6; stroke:none;" d="M353 327L354 328L353 327z"/>
<path style="fill:#5b8fc1; stroke:none;" d="M281 328L282 329L281 328z"/>
<path style="fill:#7192b2; stroke:none;" d="M354 328L355 329L354 328z"/>
<path style="fill:#6991b8; stroke:none;" d="M282 329L283 330L282 329z"/>
<path style="fill:#8aa2b9; stroke:none;" d="M314 329L315 330L314 329z"/>
<path style="fill:#8295a8; stroke:none;" d="M355 329L356 330L355 329z"/>
<path style="fill:#7893ae; stroke:none;" d="M283 330L284 331L283 330z"/>
<path style="fill:#8a98a5; stroke:none;" d="M356 330L357 331L356 330z"/>
<path style="fill:#7a94ad; stroke:none;" d="M284 331L285 332L284 331z"/>
<path style="fill:#8896a3; stroke:none;" d="M285 332L286 333L285 332z"/>
<path style="fill:#818181; stroke:none;" d="M309 332L310 333L309 332z"/>
<path style="fill:#8ca3b9; stroke:none;" d="M315 332L316 333L315 332z"/>
<path style="fill:#8796a4; stroke:none;" d="M286 333L287 334L286 333z"/>
<path style="fill:#7a94ac; stroke:none;" d="M288 335L289 336L288 335z"/>
<path style="fill:#b6b6b6; stroke:none;" d="M295 335L296 336L295 335z"/>
<path style="fill:#525252; stroke:none;" d="M310 335L311 336L310 335z"/>
<path style="fill:#86a0b9; stroke:none;" d="M316 335L317 336L316 335z"/>
<path style="fill:#6e92b5; stroke:none;" d="M289 336L290 337L289 336z"/>
<path style="fill:#686868; stroke:none;" d="M296 336L297 337L296 336z"/>
<path style="fill:#6190bd; stroke:none;" d="M290 337L291 338L290 337z"/>
<path style="fill:#548ec5; stroke:none;" d="M291 338L292 339L291 338z"/>
<path style="fill:#7095b8; stroke:none;" d="M317 338L318 339L317 338z"/>
<path style="fill:#458bcf; stroke:none;" d="M292 339L293 340L292 339z"/>
<path style="fill:#7f95aa; stroke:none;" d="M365 339L366 340L365 339z"/>
<path style="fill:#b6b6b6; stroke:none;" d="M372 339L373 340L372 339z"/>
<path style="fill:#6b91b7; stroke:none;" d="M366 340L367 341L366 340z"/>
<path style="fill:#578ec3; stroke:none;" d="M367 341L368 342L367 341z"/>
<path style="fill:#8b9aa9; stroke:none;" d="M294 342L295 343L294 342z"/>
<path style="fill:#b6b6b6; stroke:none;" d="M301 342L302 343L301 342z"/>
<path style="fill:#438bd0; stroke:none;" d="M368 342L369 343L368 342z"/>
<path style="fill:#7192b2; stroke:none;" d="M295 343L296 344L295 343z"/>
<path style="fill:#b6b6b6; stroke:none;" d="M313 343L314 344L313 343z"/>
<path style="fill:#819cb5; stroke:none;" d="M319 343L320 344L319 343z"/>
<path style="fill:#5b8fc0; stroke:none;" d="M296 344L297 345L296 344z"/>
<path style="fill:#418ad2; stroke:none;" d="M297 345L298 346L297 345z"/>
<path style="fill:#8e9ba7; stroke:none;" d="M370 345L371 346L370 345z"/>
<path style="fill:#6e92b5; stroke:none;" d="M371 346L372 347L371 346z"/>
<path style="fill:#b6b6b6; stroke:none;" d="M305 347L306 348L305 347z"/>
<path style="fill:#7192b2; stroke:none;" d="M299 348L300 349L299 348z"/>
<path style="fill:#b6b6b6; stroke:none;" d="M315 348L316 349L315 348z"/>
<path style="fill:#7596b6; stroke:none;" d="M321 348L322 349L321 348z"/>
<path style="fill:#588ec2; stroke:none;" d="M300 349L301 350L300 349z"/>
<path style="fill:#7293b2; stroke:none;" d="M373 349L374 350L373 349z"/>
<path style="fill:#498ccc; stroke:none;" d="M374 350L375 351L374 350z"/>
<path style="fill:#b6b6b6; stroke:none;" d="M308 351L309 352L308 351z"/>
<path style="fill:#7e96ad; stroke:none;" d="M302 352L303 353L302 352z"/>
<path style="fill:#7894af; stroke:none;" d="M375 352L376 353L375 352z"/>
<path style="fill:#5d8fc0; stroke:none;" d="M303 353L304 354L303 353z"/>
<path style="fill:#363636; stroke:none;" d="M317 353L318 354L317 353z"/>
<path style="fill:#6090bd; stroke:none;" d="M323 353L324 354L323 353z"/>
<path style="fill:#4d8dc9; stroke:none;" d="M376 353L377 354L376 353z"/>
<path style="fill:#b6b6b6; stroke:none;" d="M311 355L312 356L311 355M318 355L319 356L318 355z"/>
<path style="fill:#7697b7; stroke:none;" d="M324 355L325 356L324 355z"/>
<path style="fill:#7e97af; stroke:none;" d="M377 355L378 356L377 355z"/>
<path style="fill:#8198ad; stroke:none;" d="M305 356L306 357L305 356z"/>
<path style="fill:#818181; stroke:none;" d="M384 356L385 357L384 356z"/>
<path style="fill:#5c8fc0; stroke:none;" d="M306 357L307 358L306 357z"/>
<path style="fill:#568ec4; stroke:none;" d="M379 358L380 359L379 358z"/>
<path style="fill:#b6b6b6; stroke:none;" d="M385 358L386 359L385 358z"/>
<path style="fill:#525252; stroke:none;" d="M314 359L315 360L314 359z"/>
<path style="fill:#7593b0; stroke:none;" d="M308 360L309 361L308 360z"/>
<path style="fill:#5f8fbe; stroke:none;" d="M380 360L381 361L380 360z"/>
<path style="fill:#b6b6b6; stroke:none;" d="M386 360L387 361L386 360z"/>
<path style="fill:#538dc6; stroke:none;" d="M309 361L310 362L309 361z"/>
<path style="fill:#b6b6b6; stroke:none;" d="M316 362L317 363L316 362z"/>
<path style="fill:#686868; stroke:none;" d="M321 362L322 363L321 362z"/>
<path style="fill:#6090be; stroke:none;" d="M327 362L328 363L327 362z"/>
<path style="fill:#6791b9; stroke:none;" d="M381 362L382 363L381 362z"/>
<path style="fill:#6590ba; stroke:none;" d="M311 364L312 365L311 364z"/>
<path style="fill:#b6b6b6; stroke:none;" d="M322 364L323 365L322 364z"/>
<path style="fill:#6d93b7; stroke:none;" d="M328 364L329 365L328 364z"/>
<path style="fill:#7194b6; stroke:none;" d="M382 364L383 365L382 364z"/>
<path style="fill:#525252; stroke:none;" d="M319 366L320 367L319 366z"/>
<path style="fill:#7b99b6; stroke:none;" d="M329 366L330 367L329 366z"/>
<path style="fill:#7e9ab5; stroke:none;" d="M383 366L384 367L383 366z"/>
<path style="fill:#7793af; stroke:none;" d="M313 367L314 368L313 367z"/>
<path style="fill:#518dc7; stroke:none;" d="M314 368L315 369L314 368z"/>
<path style="fill:#889fb6; stroke:none;" d="M330 368L331 369L330 368z"/>
<path style="fill:#6e94b9; stroke:none;" d="M384 368L385 369L384 368z"/>
<path style="fill:#b6b6b6; stroke:none;" d="M390 368L391 369L390 368z"/>
<path style="fill:#b9b9b9; stroke:none;" d="M321 369L322 370L321 369z"/>
<path style="fill:#8b9dae; stroke:none;" d="M315 370L316 371L315 370z"/>
<path style="fill:#5c8fc0; stroke:none;" d="M316 371L317 372L316 371z"/>
<path style="fill:#88a0b8; stroke:none;" d="M386 373L387 374L386 373z"/>
<path style="fill:#6891b9; stroke:none;" d="M318 374L319 375L318 374z"/>
<path style="fill:#6992b9; stroke:none;" d="M387 375L388 376L387 375z"/>
<path style="fill:#525252; stroke:none;" d="M393 375L394 376L393 375z"/>
<path style="fill:#6f92b4; stroke:none;" d="M320 377L321 378L320 377z"/>
<path style="fill:#5a8fc1; stroke:none;" d="M334 377L335 378L334 377z"/>
<path style="fill:#8ea4b9; stroke:none;" d="M388 378L389 379L388 378z"/>
<path style="fill:#818181; stroke:none;" d="M394 378L395 379L394 378z"/>
<path style="fill:#5f90be; stroke:none;" d="M335 379L336 380L335 379z"/>
<path style="fill:#7593b0; stroke:none;" d="M322 380L323 381L322 380z"/>
<path style="fill:#4c8ccb; stroke:none;" d="M323 381L324 382L323 381z"/>
<path style="fill:#6290bc; stroke:none;" d="M336 381L337 382L336 381z"/>
<path style="fill:#b6b6b6; stroke:none;" d="M395 381L396 382L395 381z"/>
<path style="fill:#7a95af; stroke:none;" d="M324 383L325 384L324 383z"/>
<path style="fill:#6590ba; stroke:none;" d="M337 383L338 384L337 383z"/>
<path style="fill:#4e8dc9; stroke:none;" d="M325 384L326 385L325 384z"/>
<path style="fill:#b9b9b9; stroke:none;" d="M396 384L397 385L396 384z"/>
<path style="fill:#6891b8; stroke:none;" d="M338 385L339 386L338 385z"/>
<path style="fill:#7e97af; stroke:none;" d="M326 386L327 387L326 386z"/>
<path style="fill:#518dc7; stroke:none;" d="M327 387L328 388L327 387z"/>
<path style="fill:#6b91b7; stroke:none;" d="M339 387L340 388L339 387z"/>
<path style="fill:#829eb9; stroke:none;" d="M272 389L273 390L272 389z"/>
<path style="fill:#8098af; stroke:none;" d="M328 389L329 390L328 389z"/>
<path style="fill:#6c92b6; stroke:none;" d="M340 389L341 390L340 389z"/>
<path style="fill:#518dc7; stroke:none;" d="M329 390L330 391L329 390z"/>
<path style="fill:#6d92b5; stroke:none;" d="M341 391L342 392L341 391z"/>
<path style="fill:#525252; stroke:none;" d="M267 392L268 393L267 392z"/>
<path style="fill:#7f98af; stroke:none;" d="M330 392L331 393L330 392z"/>
<path style="fill:#508dc7; stroke:none;" d="M331 393L332 394L331 393z"/>
<path style="fill:#7094b6; stroke:none;" d="M342 393L343 394L342 393z"/>
<path style="fill:#7e97af; stroke:none;" d="M332 395L333 396L332 395z"/>
<path style="fill:#7194b6; stroke:none;" d="M343 395L344 396L343 395z"/>
<path style="fill:#4f8dc8; stroke:none;" d="M333 396L334 397L333 396z"/>
<path style="fill:#7194b6; stroke:none;" d="M344 397L345 398L344 397z"/>
<path style="fill:#b6b6b6; stroke:none;" d="M269 398L270 399L269 398z"/>
<path style="fill:#8da3b9; stroke:none;" d="M275 398L276 399L275 398z"/>
<path style="fill:#7b96b0; stroke:none;" d="M334 398L335 399L334 398z"/>
<path style="fill:#4d8dca; stroke:none;" d="M335 399L336 400L335 399z"/>
<path style="fill:#7294b6; stroke:none;" d="M345 399L346 400L345 399z"/>
<path style="fill:#363636; stroke:none;" d="M270 401L271 402L270 401z"/>
<path style="fill:#7999b7; stroke:none;" d="M276 401L277 402L276 401z"/>
<path style="fill:#7894b0; stroke:none;" d="M336 401L337 402L336 401z"/>
<path style="fill:#7295b5; stroke:none;" d="M346 401L347 402L346 401z"/>
<path style="fill:#4b8ccb; stroke:none;" d="M337 402L338 403L337 402z"/>
<path style="fill:#7395b6; stroke:none;" d="M347 403L348 404L347 403z"/>
<path style="fill:#7493b1; stroke:none;" d="M338 404L339 405L338 404z"/>
<path style="fill:#7395b5; stroke:none;" d="M348 405L349 406L348 405z"/>
<path style="fill:#7292b2; stroke:none;" d="M340 407L341 408L340 407z"/>
<path style="fill:#7495b5; stroke:none;" d="M349 407L350 408L349 407z"/>
<path style="fill:#b6b6b6; stroke:none;" d="M273 408L274 409L273 408z"/>
<path style="fill:#6a91b7; stroke:none;" d="M279 408L280 409L279 408z"/>
<path style="fill:#7596b5; stroke:none;" d="M350 409L351 410L350 409z"/>
<path style="fill:#b6b6b6; stroke:none;" d="M274 410L275 411L274 410z"/>
<path style="fill:#6090be; stroke:none;" d="M280 410L281 411L280 410z"/>
<path style="fill:#6f92b4; stroke:none;" d="M342 410L343 411L342 410z"/>
<path style="fill:#7696b5; stroke:none;" d="M351 411L352 412L351 411z"/>
<path style="fill:#b6b6b6; stroke:none;" d="M275 412L276 413L275 412z"/>
<path style="fill:#588ec3; stroke:none;" d="M281 412L282 413L281 412z"/>
<path style="fill:#6f92b4; stroke:none;" d="M344 413L345 414L344 413z"/>
<path style="fill:#7a98b5; stroke:none;" d="M352 413L353 414L352 413z"/>
<path style="fill:#b6b6b6; stroke:none;" d="M276 414L277 415L276 414z"/>
<path style="fill:#839bb2; stroke:none;" d="M283 415L284 416L283 415z"/>
<path style="fill:#7e9ab5; stroke:none;" d="M353 415L354 416L353 415z"/>
<path style="fill:#6f92b4; stroke:none;" d="M346 416L347 417L346 416z"/>
<path style="fill:#5f8fbe; stroke:none;" d="M284 417L285 418L284 417z"/>
<path style="fill:#839db6; stroke:none;" d="M354 417L355 418L354 417z"/>
<path style="fill:#b6b6b6; stroke:none;" d="M279 419L280 420L279 419z"/>
<path style="fill:#7393b1; stroke:none;" d="M348 419L349 420L348 419z"/>
<path style="fill:#8ea2b6; stroke:none;" d="M355 419L356 420L355 419z"/>
<path style="fill:#6290bc; stroke:none;" d="M286 420L287 421L286 420z"/>
<path style="fill:#498ccc; stroke:none;" d="M349 420L350 421L349 420z"/>
<path style="fill:#b6b6b6; stroke:none;" d="M281 422L282 423L281 422z"/>
<path style="fill:#7f97af; stroke:none;" d="M350 422L351 423L350 422z"/>
<path style="fill:#588ec2; stroke:none;" d="M288 423L289 424L288 423z"/>
<path style="fill:#548ec5; stroke:none;" d="M351 423L352 424L351 423z"/>
<path style="fill:#7f96ad; stroke:none;" d="M289 424L290 425L289 424z"/>
<path style="fill:#b6b6b6; stroke:none;" d="M283 425L284 426L283 425z"/>
<path style="fill:#6a91b7; stroke:none;" d="M353 426L354 427L353 426z"/>
<path style="fill:#7195b8; stroke:none;" d="M358 426L359 427L358 426z"/>
<path style="fill:#5f90be; stroke:none;" d="M291 427L292 428L291 427z"/>
<path style="fill:#498ccc; stroke:none;" d="M354 427L355 428L354 427z"/>
<path style="fill:#7b94ac; stroke:none;" d="M292 428L293 429L292 428z"/>
<path style="fill:#b6b6b6; stroke:none;" d="M286 429L287 430L286 429z"/>
<path style="fill:#548ec5; stroke:none;" d="M359 430L360 431L359 430z"/>
<path style="fill:#4c8cca; stroke:none;" d="M294 431L295 432L294 431z"/>
<path style="fill:#428bd1; stroke:none;" d="M358 431L359 432L358 431z"/>
<path style="fill:#5b8fc1; stroke:none;" d="M295 432L296 433L295 432z"/>
<path style="fill:#819db8; stroke:none;" d="M392 432L393 433L392 432z"/>
<path style="fill:#b6b6b6; stroke:none;" d="M398 432L399 433L398 432z"/>
<path style="fill:#6b91b6; stroke:none;" d="M296 433L297 434L296 433z"/>
<path style="fill:#b6b6b6; stroke:none;" d="M290 434C290.545 435.635 290.365 435.455 292 436C291.455 434.365 291.635 434.545 290 434z"/>
<path style="fill:#7c94ac; stroke:none;" d="M297 434L298 435L297 434z"/>
<path style="fill:#6a91b7; stroke:none;" d="M389 438L390 439L389 438z"/>
<path style="fill:#b6b6b6; stroke:none;" d="M394 440L395 441L394 440z"/>
<path style="fill:#428bd1; stroke:none;" d="M387 441L388 442L387 441z"/>
<path style="fill:#8195a8; stroke:none;" d="M305 442L306 443L305 442z"/>
<path style="fill:#6090bd; stroke:none;" d="M386 442L387 443L386 442z"/>
<path style="fill:#7493b1; stroke:none;" d="M306 443L307 444L306 443z"/>
<path style="fill:#6e92b5; stroke:none;" d="M385 443L386 444L385 443z"/>
<path style="fill:#6691b9; stroke:none;" d="M307 444L308 445L307 444z"/>
<path style="fill:#7d94ab; stroke:none;" d="M384 444L385 445L384 444z"/>
<path style="fill:#b6b6b6; stroke:none;" d="M391 444L392 445L391 444z"/>
<path style="fill:#4d8cca; stroke:none;" d="M308 445L309 446L308 445z"/>
<path style="fill:#7693af; stroke:none;" d="M383 445L384 446L383 445z"/>
<path style="fill:#6f92b4; stroke:none;" d="M382 446L383 447L382 446z"/>
<path style="fill:#7493b1; stroke:none;" d="M311 447L312 448L311 447z"/>
<path style="fill:#6891b8; stroke:none;" d="M381 447L382 448L381 447z"/>
<path style="fill:#568ec4; stroke:none;" d="M312 448L313 449L312 448z"/>
<path style="fill:#4f8dc9; stroke:none;" d="M380 448L381 449L380 448z"/>
<path style="fill:#b6b6b6; stroke:none;" d="M305 449L306 450L305 449z"/>
<path style="fill:#8a9cae; stroke:none;" d="M378 449L379 450L378 449z"/>
<path style="fill:#578ec3; stroke:none;" d="M315 450L316 451L315 450z"/>
<path style="fill:#5d8fc0; stroke:none;" d="M377 450L378 451L377 450z"/>
<path style="fill:#7d97b0; stroke:none;" d="M317 451L318 452L317 451z"/>
<path style="fill:#4a8ccb; stroke:none;" d="M318 452L319 453L318 452z"/>
<path style="fill:#548ec5; stroke:none;" d="M374 452L375 453L374 452z"/>
<path style="fill:#adadad; stroke:none;" d="M383 452L384 453L383 452z"/>
<path style="fill:#818181; stroke:none;" d="M310 453L311 454L310 453z"/>
<path style="fill:#5a8fc1; stroke:none;" d="M372 453L373 454L372 453z"/>
<path style="fill:#6190bd; stroke:none;" d="M370 454L371 455L370 454z"/>
<path style="fill:#b6b6b6; stroke:none;" d="M313 455L314 456L313 455M379 455L380 456L379 455z"/>
<path style="fill:#7698b9; stroke:none;" d="M327 456L328 457L327 456z"/>
<path style="fill:#6791b9; stroke:none;" d="M365 456L366 457L365 456z"/>
<path style="fill:#839fb9; stroke:none;" d="M330 457L331 458L330 457z"/>
<path style="fill:#686868; stroke:none;" d="M376 457L377 458L376 457z"/>
<path style="fill:#818181; stroke:none;" d="M318 458L319 459L318 458z"/>
<path style="fill:#7c9cba; stroke:none;" d="M358 458L359 459L358 458z"/>
<path style="fill:#b6b6b6; stroke:none;" d="M374 458L375 459L374 458z"/>
<path style="fill:#818181; stroke:none;" d="M320 459L321 460L320 459z"/>
<path style="fill:#b6b6b6; stroke:none;" d="M372 459L373 460L372 459z"/>
<path style="fill:#686868; stroke:none;" d="M322 460L323 461L322 460M370 460L371 461L370 460z"/>
<path style="fill:#525252; stroke:none;" d="M361 463L362 464L361 463z"/>
<path style="fill:#9d9d9d; stroke:none;" d="M356 464L357 465L356 464z"/>
</svg>
