<!DOCTYPE svg PUBLIC "-//W3C//DTD SVG 20010904//EN" "http://www.w3.org/TR/2001/REC-SVG-20010904/DTD/svg10.dtd">
<svg version="1.0" xmlns="http://www.w3.org/2000/svg" width="512px" height="512px" viewBox="0 0 5120 5120" preserveAspectRatio="xMidYMid meet">
<g id="layer101" fill="#ffffff" stroke="none">
 <path d="M2233 5064 c-463 -63 -901 -250 -1263 -540 -109 -88 -286 -265 -374 -374 -272 -340 -453 -743 -527 -1175 -27 -155 -37 -511 -19 -680 88 -860 617 -1618 1396 -2001 250 -123 562 -214 839 -244 116 -13 434 -13 550 0 472 52 941 247 1315 546 363 292 657 717 804 1164 92 281 126 491 126 797 0 310 -32 518 -126 803 -121 370 -329 705 -609 985 -397 398 -903 645 -1468 720 -148 19 -500 19 -644 -1z m512 -299 c168 -10 383 -56 561 -120 53 -19 99 -36 101 -39 3 -2 -56 -65 -129 -138 -210 -207 -336 -391 -445 -645 -75 -174 -104 -279 -110 -396 -9 -154 28 -219 140 -248 149 -37 330 41 489 209 l66 71 -28 -68 c-33 -82 -60 -194 -60 -253 0 -65 27 -156 62 -211 79 -124 218 -130 383 -17 63 44 205 180 279 269 126 152 240 350 300 521 15 41 29 82 32 90 14 39 201 -315 268 -508 20 -57 36 -106 36 -110 0 -4 -73 -7 -162 -7 -140 0 -174 -3 -243 -23 -248 -71 -501 -267 -600 -465 -31 -62 -35 -79 -35 -148 0 -138 68 -257 164 -289 52 -17 171 -9 221 15 95 46 172 162 182 274 6 60 -12 161 -28 161 -4 0 -32 -9 -62 -20 l-54 -20 10 -48 c6 -26 7 -64 3 -84 -8 -45 -57 -113 -99 -138 -39 -24 -114 -26 -145 -4 -59 41 -80 160 -42 239 80 166 328 350 545 406 90 23 237 28 300 10 89 -24 110 -81 124 -341 35 -649 -195 -1247 -656 -1702 -128 -126 -201 -186 -343 -281 -510 -338 -1155 -444 -1762 -291 -283 71 -595 227 -828 413 -95 76 -271 253 -350 351 -286 359 -454 794 -479 1247 -8 147 2 367 22 483 l13 75 31 -55 c101 -180 255 -321 448 -411 119 -56 226 -79 366 -79 234 0 421 61 503 163 26 32 31 48 34 107 3 55 0 78 -17 112 -24 50 -88 119 -143 154 -100 64 -249 82 -370 44 -68 -21 -158 -74 -158 -93 1 -7 19 -32 41 -56 36 -40 41 -43 57 -29 61 55 192 82 278 59 89 -24 187 -116 187 -176 0 -55 -75 -101 -221 -137 -279 -67 -563 24 -770 247 -122 132 -183 259 -183 383 -1 66 5 90 36 166 108 268 266 509 463 709 l87 89 7 -154 c4 -102 13 -180 27 -235 58 -232 180 -444 344 -600 88 -83 145 -123 235 -166 63 -30 74 -32 180 -32 l113 0 35 37 c31 34 34 44 34 96 0 60 -20 132 -45 165 -13 18 -16 18 -59 -12 -58 -40 -60 -44 -41 -80 8 -17 15 -41 15 -56 0 -24 -3 -25 -54 -25 -29 0 -73 7 -96 15 -106 38 -275 186 -369 324 -100 146 -172 343 -190 513 -13 132 8 315 42 357 48 59 408 256 575 315 90 32 123 32 187 2 191 -90 363 -360 451 -706 52 -206 50 -362 -6 -477 -32 -65 -88 -123 -119 -123 -18 0 -74 54 -83 80 -5 15 -118 -37 -118 -54 0 -21 56 -92 96 -122 33 -25 46 -29 104 -29 58 0 73 4 110 30 55 38 122 128 151 203 31 80 38 289 14 417 -62 333 -193 604 -379 783 -49 47 -81 84 -74 87 64 20 350 44 458 39 30 -2 96 -6 145 -9z m1045 -365 c157 -106 332 -262 457 -407 l45 -53 -12 -47 c-17 -71 -78 -228 -116 -306 -84 -166 -163 -275 -308 -424 -116 -121 -214 -192 -274 -200 -49 -7 -65 4 -94 60 -55 109 -18 272 109 476 35 55 46 84 47 116 2 80 -44 125 -126 125 -24 0 -53 -7 -65 -15 -11 -8 -51 -57 -88 -109 -132 -187 -281 -301 -407 -312 -98 -9 -123 26 -106 146 19 143 140 433 251 603 95 145 256 324 402 445 l50 41 75 -41 c41 -23 113 -67 160 -98z"/>
 <path d="M2310 2900 c-114 -9 -161 -27 -218 -83 -55 -54 -82 -125 -82 -217 0 -39 -2 -70 -5 -70 -2 0 -30 11 -61 25 -31 14 -62 25 -69 25 -13 0 -42 -67 -33 -75 2 -3 58 -31 124 -63 65 -33 164 -89 219 -126 54 -37 105 -64 111 -62 19 7 47 54 39 66 -3 5 -33 29 -67 51 l-60 41 43 44 c23 24 62 52 86 61 31 13 41 22 37 33 -3 8 -8 27 -11 43 -3 15 -11 27 -17 27 -31 -1 -107 -47 -157 -97 l-57 -55 -17 26 c-25 37 -23 139 2 197 24 53 70 95 121 108 20 5 97 13 169 17 l133 7 18 -44 c66 -155 60 -325 -18 -478 -40 -81 -81 -127 -173 -201 -123 -98 -117 -134 29 -165 38 -9 138 -18 222 -22 l152 -6 0 41 c0 50 5 48 -170 57 -69 3 -137 8 -153 11 l-27 6 45 36 c51 40 126 134 160 202 76 152 90 347 37 505 l-20 58 82 -6 c44 -4 115 -16 156 -27 173 -49 183 -94 43 -191 -37 -26 -63 -56 -63 -73 0 -3 11 -13 24 -21 16 -11 66 -19 153 -26 141 -10 166 -15 157 -31 -9 -15 -113 -60 -210 -92 l-82 -27 11 -36 c6 -19 17 -37 24 -40 32 -12 286 89 328 131 27 27 35 89 15 125 -12 23 -80 51 -123 51 -17 0 -49 3 -69 6 l-36 6 29 41 c58 79 32 175 -60 221 -111 57 -179 69 -406 71 -115 2 -253 0 -305 -5z"/>
 </g>

</svg>