<!DOCTYPE svg PUBLIC "-//W3C//DTD SVG 20010904//EN" "http://www.w3.org/TR/2001/REC-SVG-20010904/DTD/svg10.dtd">
<svg version="1.0" xmlns="http://www.w3.org/2000/svg" width="512px" height="512px" viewBox="0 0 5120 5120" preserveAspectRatio="xMidYMid meet">
<g id="layer101" fill="#ffffff" stroke="none">
 <path d="M2305 5044 c-378 -54 -563 -108 -840 -243 -255 -125 -439 -255 -643 -455 -212 -207 -363 -416 -493 -681 -114 -235 -182 -448 -226 -710 -26 -158 -26 -602 0 -760 44 -262 112 -475 226 -710 125 -255 255 -439 455 -643 395 -405 896 -653 1466 -728 170 -22 554 -14 715 14 256 46 450 109 680 221 265 130 474 281 681 493 200 204 330 388 455 643 86 176 135 308 179 484 56 224 65 311 65 606 0 295 -9 382 -65 606 -83 331 -248 666 -460 934 -90 114 -268 293 -385 388 -272 220 -606 388 -939 473 -212 54 -304 65 -581 69 -143 2 -273 1 -290 -1z m550 -100 c790 -96 1490 -597 1845 -1319 239 -487 304 -1046 184 -1583 -154 -690 -635 -1296 -1279 -1612 -487 -239 -1046 -304 -1583 -184 -879 196 -1600 917 -1796 1796 -77 345 -77 721 0 1066 154 689 637 1297 1279 1612 421 206 876 282 1350 224z"/>
 <path d="M1636 4745 c-132 -34 -259 -116 -381 -247 -237 -255 -274 -581 -105 -936 67 -141 128 -228 235 -335 161 -162 321 -256 450 -264 66 -5 73 -3 112 26 24 17 55 50 70 73 24 36 28 51 28 112 -1 58 -6 81 -29 125 -30 59 -144 176 -200 206 -34 19 -36 19 -55 0 -40 -35 -33 -45 88 -143 71 -57 111 -159 91 -231 -22 -83 -99 -92 -235 -27 -201 97 -346 250 -456 480 -111 234 -129 442 -55 646 73 198 254 360 466 415 92 24 231 16 324 -19 79 -30 193 -103 231 -148 60 -71 124 -241 166 -439 29 -137 32 -424 6 -568 -20 -107 -54 -199 -80 -215 -24 -15 -95 24 -123 67 -46 72 -57 121 -51 226 5 87 4 101 -12 115 -42 38 -77 6 -89 -85 -19 -136 11 -237 101 -335 58 -64 111 -94 164 -94 33 0 46 7 86 48 88 89 121 241 121 552 0 226 -14 315 -76 509 -49 155 -85 216 -179 306 -92 88 -145 123 -247 162 -85 32 -271 42 -366 18z"/>
 <path d="M3355 4645 c-5 -2 -42 -14 -82 -25 -39 -12 -82 -30 -94 -41 -12 -10 -28 -19 -36 -19 -7 0 -13 -4 -13 -10 0 -5 -6 -10 -13 -10 -7 0 -18 -9 -25 -20 -7 -11 -16 -20 -20 -20 -11 0 -172 -160 -172 -171 0 -5 -9 -14 -20 -21 -11 -7 -20 -19 -20 -26 0 -7 -7 -15 -15 -18 -8 -4 -15 -12 -15 -20 0 -8 -4 -14 -10 -14 -5 0 -10 -7 -10 -15 0 -8 -4 -15 -9 -15 -5 0 -12 -11 -15 -25 -4 -14 -10 -25 -15 -25 -4 0 -16 -19 -25 -42 -10 -24 -24 -56 -32 -73 -59 -128 -106 -397 -108 -610 -1 -167 21 -228 90 -241 38 -7 100 11 108 31 3 8 10 15 15 15 11 0 151 139 151 150 0 5 11 17 25 28 14 11 25 25 25 31 0 6 9 16 20 23 11 7 20 19 20 26 0 7 7 15 15 18 8 4 15 13 15 20 0 8 7 17 15 20 8 4 15 13 15 20 0 8 7 17 15 20 8 4 15 12 15 20 0 8 5 14 10 14 6 0 10 7 10 15 0 9 7 18 15 21 8 4 15 12 15 19 0 11 20 25 36 25 8 0 4 -29 -10 -57 -18 -37 -51 -111 -66 -148 -7 -16 -16 -38 -21 -47 -5 -10 -9 -23 -9 -30 0 -7 -7 -25 -14 -40 -24 -46 -56 -184 -56 -242 0 -48 4 -60 31 -91 23 -26 39 -35 63 -35 35 0 125 29 144 47 6 6 22 15 35 19 12 4 24 10 27 14 9 12 98 70 108 70 6 0 12 7 16 15 3 8 12 15 20 15 7 0 16 7 20 15 3 8 9 15 14 15 8 0 178 166 197 193 6 8 30 43 54 78 25 35 48 66 51 69 4 3 21 37 39 75 18 39 41 89 52 111 58 123 94 381 70 506 -13 66 -47 147 -68 161 -7 4 -13 12 -13 16 0 11 -90 101 -102 101 -5 0 -11 7 -14 15 -4 8 -12 15 -20 15 -8 0 -14 4 -14 9 0 10 -5 12 -100 48 -52 20 -88 26 -185 29 -66 2 -124 2 -130 -1z m285 -79 c232 -79 338 -255 309 -514 -18 -160 -96 -372 -191 -518 -138 -213 -487 -476 -616 -465 -26 2 -33 51 -18 130 27 144 112 346 338 805 76 154 138 285 138 292 0 26 -21 24 -45 -2 -14 -15 -108 -152 -209 -303 -191 -286 -332 -483 -420 -586 -92 -108 -171 -168 -214 -163 -42 5 -55 64 -48 228 13 316 86 568 220 755 226 314 486 432 756 341z"/>
 <path d="M503 3628 c-12 -13 -32 -52 -44 -88 -20 -56 -23 -85 -24 -205 0 -135 1 -143 32 -218 46 -109 93 -179 187 -275 121 -124 273 -217 469 -285 87 -30 99 -31 242 -32 178 0 232 16 304 89 40 41 44 49 48 110 5 60 3 72 -26 131 -33 67 -86 120 -156 158 -37 20 -54 22 -195 21 -177 -2 -343 -24 -371 -50 -24 -22 -24 -46 0 -68 19 -17 25 -17 128 -1 60 10 168 18 243 19 126 1 138 -1 180 -24 34 -19 52 -38 72 -79 75 -147 8 -206 -232 -206 -114 1 -133 3 -217 32 -188 66 -379 181 -452 273 -64 80 -108 160 -136 245 -24 71 -27 91 -23 180 4 74 12 120 32 178 26 75 27 79 10 98 -23 25 -46 24 -71 -3z"/>
 <path d="M4161 3545 c-144 -50 -301 -155 -435 -291 -140 -142 -210 -260 -240 -407 -31 -151 -17 -236 53 -308 67 -69 145 -85 264 -54 82 21 127 47 196 110 121 113 173 226 175 386 1 82 -2 100 -18 118 -24 26 -48 27 -71 1 -14 -16 -17 -30 -12 -70 13 -113 -42 -278 -118 -355 -46 -45 -117 -79 -203 -96 -53 -11 -69 -11 -105 1 -57 20 -72 53 -71 155 3 196 128 411 322 553 155 113 311 182 414 182 94 -1 183 -54 238 -142 65 -103 95 -120 126 -73 16 24 15 27 -17 81 -40 66 -158 182 -214 209 -65 32 -192 32 -284 0z"/>
 <path d="M2518 3020 c-7 -4 -37 -10 -67 -14 -69 -9 -201 -57 -262 -96 -59 -38 -184 -169 -206 -215 -9 -19 -21 -35 -27 -35 -6 1 -23 19 -38 40 -32 46 -64 52 -93 20 -18 -20 -18 -22 23 -98 134 -250 189 -346 204 -356 13 -8 23 -5 43 14 31 29 31 38 -1 101 -14 28 -23 53 -20 56 3 3 44 -9 91 -27 83 -31 87 -31 106 -14 46 42 11 79 -125 130 -54 21 -100 43 -103 50 -5 15 34 94 76 152 18 23 57 59 88 79 73 46 203 93 266 96 l51 2 19 -50 c75 -195 106 -451 73 -598 -21 -94 -72 -198 -127 -261 -82 -93 -238 -179 -436 -238 -146 -44 -183 -78 -135 -121 29 -26 87 -21 405 33 563 95 597 104 597 150 0 9 -9 25 -20 35 -19 17 -28 16 -250 -25 -127 -23 -234 -39 -238 -36 -4 4 14 24 38 43 143 115 232 250 266 399 36 164 0 453 -83 671 -7 18 60 17 172 -2 157 -28 225 -71 225 -144 0 -41 -41 -134 -94 -213 -42 -62 -45 -86 -12 -117 34 -32 54 -25 165 54 94 66 111 74 111 53 0 -11 -60 -121 -101 -186 -15 -24 -7 -47 24 -66 35 -22 81 35 167 207 56 111 62 152 27 185 -33 31 -64 27 -131 -13 -71 -42 -80 -43 -72 -7 13 50 18 131 12 157 -11 43 -91 120 -154 148 -32 15 -98 33 -147 41 -103 17 -287 26 -307 16z"/>
 </g>

</svg>